<?xml version="1.0" encoding="utf-8"?>
<!-- Generator: Adobe Illustrator 18.1.1, SVG Export Plug-In . SVG Version: 6.00 Build 0)  -->
<!DOCTYPE svg PUBLIC "-//W3C//DTD SVG 1.1//EN" "http://www.w3.org/Graphics/SVG/1.1/DTD/svg11.dtd">
<svg version="1.1" id="user" xmlns="http://www.w3.org/2000/svg" xmlns:xlink="http://www.w3.org/1999/xlink" x="0px" y="0px"
	 viewBox="0 0 48 48" enable-background="new 0 0 48 48" xml:space="preserve">
<g>
	<path id="body" d="M32.8,33.3c-2.6,1.4-5.6,2.2-8.8,2.2c-3.2,0-6.2-0.8-8.8-2.2C9.5,34.8,5,38.3,2.9,45.9h42.1
		C43,38.3,38.5,34.8,32.8,33.3z"/>
	<path id="head" d="M24,2.1c-8.1,0-14.7,6.6-14.7,14.7c0,8.1,6.6,14.7,14.7,14.7c8.1,0,14.7-6.6,14.7-14.7C38.7,8.6,32.1,2.1,24,2.1
		z M24.7,28.3c-4.4,0-8.2-2.9-10.5-7.2h20.9C32.9,25.5,29.1,28.3,24.7,28.3z"/>
</g>
</svg>
